<?xml version="1.0" standalone="no"?><!DOCTYPE svg PUBLIC "-//W3C//DTD SVG 1.1//EN" "http://www.w3.org/Graphics/SVG/1.1/DTD/svg11.dtd"><svg t="1715603295029" class="icon" viewBox="0 0 1024 1024" version="1.1" xmlns="http://www.w3.org/2000/svg" p-id="5786" xmlns:xlink="http://www.w3.org/1999/xlink" width="200" height="200"><path d="M663.388704 180.305648c23.813953-30.61794 34.019934-74.843854 20.41196-112.265781-13.607973-40.82392-47.627907-68.039867-95.255814-68.039867-51.0299 0-88.451827 23.813953-105.461794 64.637874-10.20598 23.813953-10.20598 51.0299-3.401993 71.44186-40.82392 13.607973-105.461794 27.215947-139.481727 34.019934C329.993355 112.265781 289.169435 71.44186 238.139535 71.44186c-17.009967 0-37.421927 6.803987-57.833887 20.411961-37.421927 20.41196-57.833887 54.431894-51.0299 91.85382 3.401993 30.61794 17.009967 57.833887 40.82392 74.843854C61.23588 333.395349 0 510.299003 0 615.760797c0 112.265781 95.255814 408.239203 527.30897 408.239203C996.784053 1024 1020.598007 683.800664 1020.598007 615.760797c0-95.255814-64.637874-353.807309-357.209303-435.455149z m-136.079734 809.674418C122.471761 989.980066 34.019934 721.222591 34.019934 615.760797c0-10.20598 0-20.41196 3.401993-30.61794 6.803987 54.431894 57.833887 98.657807 115.667774 98.657807 40.82392 0 74.843854-20.41196 98.657807-51.0299 10.20598 23.813953 20.41196 44.225914 37.421927 64.637874-10.20598 13.607973-17.009967 34.019934-10.20598 57.833887 3.401993 13.607973 13.607973 34.019934 44.225914 44.225914 0 3.401993 0 6.803987 3.401993 10.20598 6.803987 13.607973 17.009967 27.215947 51.0299 27.215946 23.813953 0 44.225914-10.20598 57.833888-20.41196 3.401993 6.803987 6.803987 10.20598 10.20598 17.009967 6.803987 10.20598 23.813953 20.41196 51.0299 20.41196s44.225914-10.20598 51.0299-20.41196c3.401993-3.401993 6.803987-6.803987 6.803987-10.20598 3.401993 3.401993 6.803987 6.803987 13.607973 10.20598 13.607973 10.20598 34.019934 10.20598 54.431894 6.803987 23.813953-6.803987 34.019934-23.813953 40.82392-34.019934h6.803987c30.61794-17.009967 85.049834-54.431894 85.049834-81.64784 0-10.20598-3.401993-17.009967-10.20598-23.813954-6.803987-6.803987-20.41196-10.20598-30.61794-10.20598 10.20598-17.009967 20.41196-34.019934 27.215946-51.0299 20.41196 30.61794 57.833887 51.0299 98.657808 51.0299 64.637874 0 119.069767-54.431894 119.069767-119.069767S898.126246 445.66113 833.488372 445.66113c-40.82392 0-74.843854 20.41196-98.657807 51.0299-34.019934-88.451827-129.275748-153.089701-241.541528-153.089701s-210.923588 64.637874-241.541529 153.089701c-23.813953-30.61794-57.833887-51.0299-98.657807-51.0299s-78.245847 20.41196-98.657807 54.431893c13.607973-40.82392 30.61794-85.049834 54.431893-122.471761 13.607973-3.401993 27.215947-10.20598 40.823921-13.607973 27.215947-10.20598 51.0299-20.41196 71.44186-20.41196 10.20598 0 17.009967-6.803987 17.009967-17.009967S231.335548 309.581395 221.129568 309.581395c-23.813953 0-51.0299 10.20598-78.245847 17.009967 20.41196-23.813953 44.225914-40.82392 68.039867-54.431894 6.803987-3.401993 10.20598-10.20598 10.20598-17.009966s-6.803987-10.20598-13.607973-13.607974c-20.41196-6.803987-44.225914-34.019934-47.627907-61.23588 0-17.009967 3.401993-40.82392 34.019933-61.235881 17.009967-6.803987 30.61794-13.607973 44.225914-13.607973 44.225914 0 68.039867 44.225914 68.039867 85.049834 0 6.803987 3.401993 10.20598 6.803987 13.607973 3.401993 3.401993 10.20598 3.401993 13.607973 3.401994 40.82392-10.20598 156.491694-34.019934 183.707641-34.019934 6.803987 0 13.607973-3.401993 17.009967-10.20598 3.401993-6.803987 0-13.607973-3.401993-17.009967-13.607973-13.607973-17.009967-40.82392-6.803987-64.637873 6.803987-17.009967 23.813953-44.225914 74.843854-44.225914 40.82392 0 57.833887 27.215947 61.23588 44.225914 10.20598 34.019934-3.401993 74.843854-34.019933 95.255813-3.401993 3.401993-6.803987 10.20598-6.803987 17.009967s6.803987 10.20598 13.607973 13.607974c98.657807 23.813953 173.501661 68.039867 227.933555 122.47176-51.0299-6.803987-119.069767 3.401993-136.079734 20.411961-6.803987 6.803987-6.803987 17.009967 0 23.813953 6.803987 6.803987 17.009967 6.803987 23.813953 0 17.009967-13.607973 129.275748-17.009967 146.285715 0 3.401993 3.401993 3.401993 3.401993 6.803986 3.401993 61.23588 81.647841 88.451827 173.501661 88.451828 238.139535 3.401993 88.451827-30.61794 374.219269-455.86711 374.219269zM68.039867 564.730897C68.039867 517.10299 105.461794 479.681063 153.089701 479.681063S238.139535 517.10299 238.139535 564.730897 200.717608 649.780731 153.089701 649.780731 68.039867 612.358804 68.039867 564.730897z m591.946844 197.315615c-3.401993-10.20598-6.803987-20.41196-10.20598-23.813954 10.20598-6.803987 20.41196-13.607973 27.215947-20.41196H714.418605c-3.401993 6.803987-27.215947 27.215947-54.431894 44.225914z m-34.019934 27.215946c0 3.401993-3.401993 10.20598-17.009966 13.607974-10.20598 3.401993-17.009967 3.401993-23.813954-3.401993-10.20598-6.803987-13.607973-17.009967-17.009967-23.813954 20.41196-3.401993 37.421927-13.607973 57.833887-20.41196 0 10.20598 3.401993 23.813953 0 34.019933z m-299.375415-27.215946c-6.803987-3.401993-13.607973-10.20598-17.009967-17.009967-3.401993-10.20598 0-17.009967 3.401994-23.813954 6.803987 6.803987 17.009967 13.607973 23.813953 20.41196l-10.20598 20.411961z m40.82392-3.401994l51.029901 20.41196c-6.803987 10.20598-20.41196 27.215947-47.627907 27.215947-6.803987 0-17.009967 0-20.41196-6.803986 0-10.20598 6.803987-30.61794 17.009966-40.823921z m125.873755 27.215947c10.20598 0 23.813953 0 34.019933-3.401993 0 10.20598-3.401993 20.41196-10.20598 27.215947-10.20598 13.607973-40.82392 13.607973-51.0299 0-6.803987-6.803987-6.803987-17.009967-10.20598-27.215947 13.607973 3.401993 27.215947 3.401993 37.421927 3.401993z m0-34.019933C370.817276 751.840532 272.159468 666.790698 272.159468 564.730897s98.657807-187.109635 221.129569-187.109635 221.129568 85.049834 221.129568 187.109635-98.657807 187.109635-221.129568 187.109635z m255.149501-187.109635c0-47.627907 37.421927-85.049834 85.049834-85.049834s85.049834 37.421927 85.049834 85.049834-37.421927 85.049834-85.049834 85.049834-85.049834-37.421927-85.049834-85.049834z" fill="#894276" p-id="5787"></path><path d="M187.109635 564.730897m-17.009967 0a17.009967 17.009967 0 1 0 34.019933 0 17.009967 17.009967 0 1 0-34.019933 0Z" fill="#894276" p-id="5788"></path><path d="M799.468439 564.730897m-17.009967 0a17.009967 17.009967 0 1 0 34.019933 0 17.009967 17.009967 0 1 0-34.019933 0Z" fill="#894276" p-id="5789"></path><path d="M391.229236 513.700997c-30.61794 0-51.0299 37.421927-51.0299 85.049834s20.41196 85.049834 51.0299 85.049833 51.0299-37.421927 51.0299-85.049833-20.41196-85.049834-51.0299-85.049834z m0 136.079734c-3.401993 0-17.009967-17.009967-17.009967-51.0299s13.607973-51.0299 17.009967-51.029901 17.009967 17.009967 17.009967 51.029901-13.607973 51.0299-17.009967 51.0299zM595.348837 513.700997c-30.61794 0-51.0299 37.421927-51.0299 85.049834s20.41196 85.049834 51.0299 85.049833 51.0299-37.421927 51.029901-85.049833-20.41196-85.049834-51.029901-85.049834z m0 136.079734c-3.401993 0-17.009967-17.009967-17.009967-51.0299s13.607973-51.0299 17.009967-51.029901 17.009967 17.009967 17.009967 51.029901-13.607973 51.0299-17.009967 51.0299z" fill="#894276" p-id="5790"></path></svg>